<?xml version="1.0" encoding="UTF-8"?><svg id="Capa_2" xmlns="http://www.w3.org/2000/svg" viewBox="0 0 58 46"><defs><style>.cls-1{fill:none;stroke:#fff;stroke-linecap:round;stroke-linejoin:round;stroke-width:4px;}</style></defs><g id="Icons"><g><path class="cls-1" d="M6,18V6c0-2.21,1.79-4,4-4h7.34c1.06,0,2.08,.42,2.83,1.17l4.66,4.66c.75,.75,1.77,1.17,2.83,1.17h20.4c2.18,0,3.94,1.76,3.94,3.94v5.06"/><path class="cls-1" d="M55.96,21.46c.13-.87-.12-1.74-.67-2.41-.56-.67-1.38-1.05-2.24-1.05H4.95c-.86,0-1.68,.38-2.24,1.05-.56,.66-.81,1.54-.67,2.41l3.02,20c.22,1.46,1.46,2.54,2.91,2.54H50.03c1.46,0,2.69-1.08,2.91-2.54l3.02-20Z"/></g></g></svg>