<?xml version="1.0" encoding="UTF-8"?><svg id="Capa_2" xmlns="http://www.w3.org/2000/svg" xmlns:xlink="http://www.w3.org/1999/xlink" viewBox="0 0 120.12 22.01"><defs><style>.cls-1{fill:url(#Degradado_sin_nombre_6);}.cls-2{fill:url(#Degradado_sin_nombre_2);}.cls-3{fill:url(#Degradado_sin_nombre_8);}.cls-4{fill:url(#Degradado_sin_nombre_7);}</style><linearGradient id="Degradado_sin_nombre_7" x1="3.01" y1="3.87" x2="118.09" y2="28.87" gradientUnits="userSpaceOnUse"><stop offset="0" stop-color="#fff"/><stop offset=".09" stop-color="#f4f4f4"/><stop offset=".24" stop-color="#d6d6d6"/><stop offset=".44" stop-color="#a7a7a7"/><stop offset=".67" stop-color="#656565"/><stop offset=".94" stop-color="#131313"/><stop offset="1" stop-color="#000"/></linearGradient><linearGradient id="Degradado_sin_nombre_6" x1="-14.31" y1="10.29" x2="109.65" y2="41.81" gradientUnits="userSpaceOnUse"><stop offset="0" stop-color="#fff"/><stop offset=".1" stop-color="#f9f9f9"/><stop offset=".22" stop-color="#e9e9e9"/><stop offset=".36" stop-color="#cecece"/><stop offset=".51" stop-color="#a8a8a8"/><stop offset=".67" stop-color="#787878"/><stop offset=".84" stop-color="#3e3e3e"/><stop offset="1" stop-color="#000"/></linearGradient><linearGradient id="Degradado_sin_nombre_8" x1="-10.67" y1="17.15" x2="107.41" y2="31.52" gradientUnits="userSpaceOnUse"><stop offset="0" stop-color="#fff"/><stop offset=".08" stop-color="#f5f5f5"/><stop offset=".22" stop-color="#dcdcdc"/><stop offset=".4" stop-color="#b3b3b3"/><stop offset=".61" stop-color="#7b7b7b"/><stop offset=".84" stop-color="#343434"/><stop offset="1" stop-color="#000"/></linearGradient><linearGradient id="Degradado_sin_nombre_2" x1="47" y1="-6.1" x2="110.05" y2="16.52" gradientUnits="userSpaceOnUse"><stop offset="0" stop-color="#fff"/><stop offset=".61" stop-color="#606060"/><stop offset="1" stop-color="#000"/></linearGradient></defs><g id="Capa_1-2"><g><path class="cls-4" d="M23.98,22.01H119.21c.99,0,1.26-1.46,.34-1.86l-20.85-9.08c-.11-.05-.23-.07-.34-.07H11.99c-.88,0-1.25,1.21-.53,1.75l12,9.08c.15,.12,.34,.18,.53,.18Z"/><path class="cls-1" d="M18.82,20.26L5.86,11.18c-.17-.12-.37-.18-.58-.18H2.9c-.94,0-1.35,1.17-.6,1.73l12.07,9.08c.17,.13,.39,.2,.6,.2h3.27c.96,0,1.36-1.2,.58-1.75Z"/><path class="cls-3" d="M8.68,20.26L1.56,15.32c-.66-.46-1.56,0-1.56,.79v4.94c0,.53,.44,.97,.99,.97h7.12c.96,0,1.36-1.21,.57-1.75Z"/><path class="cls-2" d="M91.45,9.27l-11.47-.15c-.24,0-.47-.11-.64-.29l-6.53-7.18c-.67-.74,.07-1.94,.98-1.57l17.99,7.33c.95,.39,.68,1.88-.34,1.87Z"/></g></g></svg>